# xmcd
#
# Track frame offsets: 
#        150
#        15052
#        28970
#        41955
#        60527
#        72582
#        85582
#        95527
#        106427
#        118790
#        133192
#        147015
#        162657
#        174810
#
# Disc length: 2372 seconds
#
# Revision: 2
# Processed by: cddbd v1.5.1PL2 Copyright (c) Steve Scherf et al.
# Submitted via: ExactAudioCopy v0.95b4
#
DISCID=be09420e
DTITLE=Brent Parlane - Brent Parlane
DYEAR=1992
DGENRE=Country
TTITLE0=Small Country
TTITLE1=A Man Like Me
TTITLE2=Passing on Love
TTITLE3=Two for the Road
TTITLE4=Oxford Street
TTITLE5=Save a Little Love
TTITLE6=Louise
TTITLE7=Baby, Baby, Baby
TTITLE8=Happy Days
TTITLE9=The Boat
TTITLE10=Springvale Road
TTITLE11=The Closest
TTITLE12=Goodnight Kiss
TTITLE13=Reprise
EXTD=
EXTT0=
EXTT1=
EXTT2=
EXTT3=
EXTT4=
EXTT5=
EXTT6=
EXTT7=
EXTT8=
EXTT9=
EXTT10=
EXTT11=
EXTT12=
EXTT13=
PLAYORDER=
